# xmcd
#
# Track frame offsets:
#	150
#	16682
#	35990
#	50455
#	65965
#	78007
#	92482
#	105142
#	124560
#	142770
#	154632
#	171692
#	185487
#	197867
#	219210
#	239700
#
# Disc length: 3412 seconds
#
# Revision: 1
# Processed by: cddbd v1.5.1PL0 Copyright (c) Steve Scherf et al.
# Submitted via: EasyCDDAExtractor 7.0.6.1
#
DISCID=d40d5210
DTITLE=John McSweeny - John McSweeny If I Didn't Have You In My World
DYEAR=1900
DGENRE=Country
TTITLE0=If I Didn't Have You In My World
TTITLE1=Don't Close Your Eyes
TTITLE2=Ford's To The Moon
TTITLE3=Gotten Good At Goodbye
TTITLE4=Don't We All Have The Right
TTITLE5=Lillie's White Lies
TTITLE6=Waltz Across Texas
TTITLE7=One Good Love
TTITLE8=Miami My Amy
TTITLE9=Turn Out The Lights
TTITLE10=Crazy
TTITLE11=I Wouldn't Change You if I Could
TTITLE12=MAke The World Go Away
TTITLE13=Bobby
TTITLE14=Old Flames Can't Hold A Candle
TTITLE15=Look At Us
EXTD=
EXTT0=
EXTT1=
EXTT2=
EXTT3=
EXTT4=
EXTT5=
EXTT6=
EXTT7=
EXTT8=
EXTT9=
EXTT10=
EXTT11=
EXTT12=
EXTT13=
EXTT14=
EXTT15=
PLAYORDER=
